<svg data-v-0dd9719b="" version="1.0" xmlns="http://www.w3.org/2000/svg" xmlns:xlink="http://www.w3.org/1999/xlink" width="100%" height="100%" viewBox="0 0 60.000003814697266 60.28091049194336" preserveAspectRatio="xMidYMid meet" color-interpolation-filters="sRGB" style="margin: auto;"> <rect data-v-0dd9719b="" x="0" y="0" width="100%" height="100%" fill="#fcfbeb" fill-opacity="1" class="background" style="display: none;"></rect> <rect data-v-0dd9719b="" x="0" y="0" width="100%" height="100%" fill="url(#watermark)" fill-opacity="1" class="watermarklayer" style="display: none;"></rect> <g data-v-0dd9719b="" class="imagesvg isNoFont"><g><rect fill="#072c7c" fill-opacity="0" stroke-width="2" x="0" y="0" width="60" height="60.28090903610826" class="image-rect"></rect> <svg x="0" y="0" width="60" height="60.28090903610826" filtersec="colorsb7336626459" class="image-svg-svg primary" style="overflow: visible;"><svg version="1.1" id="cube" xmlns="http://www.w3.org/2000/svg" xmlns:xlink="http://www.w3.org/1999/xlink" x="0px" y="0px" viewBox="3.7100000381469727 7.5 549.1900024414062 551.760009765625" enable-background="new 0 0 559.47 563.5" xml:space="preserve">
<g>
	<path fill="#5fcdfe" d="M134.75,297.16C62.4,297.16,3.71,355.83,3.71,428.2c0,72.38,58.68,131.05,131.04,131.05
		c72.39,0,131.04-58.67,131.04-131.05h0.03V297.16H134.75z"></path>
	<path fill="#5fcdfe" d="M421.84,297.16c72.39,0,131.06,58.68,131.06,131.05c0,72.38-58.67,131.05-131.06,131.05
		c-72.37,0-131.04-58.67-131.04-131.05l0,0V297.16H421.84z"></path>
	<path fill="#5fcdfe" d="M134.75,269.59c-72.35,0-131.04-58.68-131.04-131.04C3.71,66.17,62.4,7.5,134.75,7.5
		c72.39,0,131.04,58.67,131.04,131.05h0.03v131.04H134.75z"></path>
	<path fill="#5fcdfe" d="M421.84,9.69c-72.37,0-131.04,58.67-131.04,131.05c0,1.74,0.05,3.47,0.12,5.19v125.73h125.79
		c1.72,0.08,3.41,0.13,5.13,0.13c72.39,0,131.06-58.67,131.06-131.05l0,0V9.69H421.84z M423.7,241.65
		c-55.5,0-100.46-44.99-100.46-100.48c0-55.49,44.97-100.48,100.46-100.48c55.52,0,100.52,44.99,100.52,100.48
		C524.22,196.66,479.22,241.65,423.7,241.65z"></path>
</g>
</svg></svg> <!----></g></g><defs v-gra="od"></defs></svg>